<svg xmlns="http://www.w3.org/2000/svg" version="1.1" xmlns:xlink="http://www.w3.org/1999/xlink" width="1500" height="364" viewBox="0 0 1500 364"><svg xml:space="preserve" width="1500" height="364" data-version="2" data-id="lg_MqpcxoWTKBnVHOLfkp" viewBox="0 0 571 364" x="0" y="0"><rect width="100%" height="100%" fill="transparent"></rect><path fill="#444" stroke="#fff" stroke-width="1.951" d="M5.502 355.567h159.664m240.668-.175h159.664"></path><path fill="#fff" d="M164.5 316.948v-53.2h11.94l5.32 38.08h.15l5.32-38.08h11.93v53.2h-7.9v-40.28h-.16l-6.08 40.28h-6.99l-6.08-40.28h-.15v40.28zm52.98.76q-6.16 0-9.43-3.49-3.27-3.5-3.27-9.88v-27.97q0-6.39 3.27-9.88 3.27-3.5 9.43-3.5 6.15 0 9.42 3.5 3.27 3.49 3.27 9.88v27.97q0 6.38-3.27 9.88-3.27 3.49-9.42 3.49m0-7.6q4.33 0 4.33-5.24v-29.03q0-5.25-4.33-5.25-4.34 0-4.34 5.25v29.03q0 5.24 4.34 5.24m24.16 6.84-8.05-53.2h8.43l5.48 41.27h.15l5.47-41.27h7.68l-8.06 53.2zm23.18 0v-53.2h8.36v53.2zm14.6 0v-53.2h22.8v7.6h-14.44v14.06h11.47v7.6h-11.47v16.34h14.44v7.6zm39.74 0v-53.2h8.36v45.6h13.76v7.6zm26.15 0v-53.2h8.36v53.2zm25.46.76q-6.08 0-9.2-3.46-3.11-3.45-3.11-9.91v-3.04h7.9v3.64q0 5.17 4.33 5.17 2.13 0 3.23-1.25 1.1-1.26 1.1-4.07 0-3.34-1.52-5.89-1.52-2.54-5.62-6.12-5.17-4.56-7.22-8.24-2.05-3.69-2.05-8.32 0-6.31 3.19-9.77t9.27-3.46q6.01 0 9.08 3.46 3.08 3.46 3.08 9.92v2.2h-7.9v-2.73q0-2.74-1.07-3.99-1.06-1.26-3.11-1.26-4.18 0-4.18 5.09 0 2.89 1.56 5.4 1.55 2.51 5.66 6.08 5.24 4.56 7.22 8.28 1.97 3.73 1.97 8.74 0 6.54-3.23 10.04-3.23 3.49-9.38 3.49m23.94-.76v-45.6h-8.74v-7.6h25.84v7.6h-8.74v45.6zM189 348.938l-2.87 5.85v5.35h-1.01v-5.34l-2.9-5.86h1.09l2.3 4.66 2.31-4.66zm6.63 9.01q0 .48-.19.91-.18.43-.5.75t-.75.51q-.43.18-.91.18h-.64q-.49 0-.92-.18-.43-.19-.75-.51t-.5-.75q-.19-.43-.19-.91v-3.61q0-.48.19-.91.18-.43.5-.75t.75-.51q.43-.18.92-.18h.64q.48 0 .91.18.43.19.75.51t.5.75q.19.43.19.91zm-.96.05v-3.71q0-.29-.11-.55-.11-.25-.3-.44t-.44-.3q-.25-.11-.54-.11h-.64q-.29 0-.55.11-.25.11-.44.3t-.3.44q-.1.26-.1.55v3.71q0 .29.1.55.11.25.3.44t.44.3q.26.1.55.1h.64q.29 0 .54-.1.25-.11.44-.3t.3-.44q.11-.26.11-.55m8.22 2.14h-.32l-.53-.81q-.33.45-.82.71-.49.26-1.08.26h-.24q-.48 0-.91-.18-.43-.19-.75-.51t-.51-.75q-.18-.43-.18-.91v-5.81h.96v5.86q0 .29.11.55.11.25.3.44.18.19.44.3.25.1.54.1h.64q.29 0 .54-.1.26-.11.45-.3.18-.19.29-.44.11-.26.11-.55v-5.86h.96zm5.24-7.08h-.96q-.29 0-.55.11-.25.11-.44.29-.18.19-.29.45-.11.25-.11.54v5.69h-.96v-8h.32l.52.82q.33-.45.82-.71.5-.26 1.09-.26h.56zm11.42 1.19v5.89h-.32l-.59-.89q-.36.48-.89.77-.52.28-1.16.28H216q-.57 0-1.07-.21-.51-.22-.88-.59-.38-.38-.59-.88-.21-.5-.21-1.07v-6.01q0-.58.21-1.08.21-.5.59-.87.37-.38.88-.59.5-.21 1.07-.21h.8q.57 0 1.07.21.5.21.88.59.37.37.58.87.22.5.22 1.08v.45l-1.01.15v-.6q0-.38-.14-.7-.14-.33-.38-.57-.24-.24-.57-.38-.32-.14-.7-.14h-.7q-.38 0-.7.14-.32.14-.57.38-.25.24-.39.57-.14.32-.14.7v6.01q0 .38.14.7.14.32.39.57.25.25.57.39.32.14.7.14h.7q.38 0 .7-.14.33-.14.57-.39.24-.25.38-.57.14-.32.14-.7v-2.34h-1.79v-.96zm7.43 5.89h-.32l-.53-.81q-.33.45-.82.71-.49.26-1.08.26h-.24q-.49 0-.92-.18-.43-.19-.75-.51t-.5-.75q-.18-.43-.18-.91v-5.81h.96v5.86q0 .29.11.55.11.25.29.44.19.19.44.3.26.1.55.1h.64q.29 0 .54-.1.25-.11.44-.3t.3-.44q.11-.26.11-.55v-5.86h.96zm3.28-9.92h-1.12v-1.28h1.12zm-.08 9.92h-.96v-8h.96zm7.59 0h-.32l-.53-.81q-.33.45-.82.71-.5.26-1.08.26h-.24q-.49 0-.92-.18-.43-.19-.75-.51t-.5-.75q-.19-.43-.19-.91v-3.61q0-.48.19-.91.18-.43.5-.75t.75-.51q.43-.18.92-.18h.24q.54 0 1 .22.46.22.79.61v-3.88h.96zm-.96-2.14v-3.71q0-.29-.11-.55-.11-.25-.3-.44t-.44-.3q-.25-.11-.54-.11h-.64q-.29 0-.55.11-.25.11-.44.3t-.29.44q-.11.26-.11.55v3.71q0 .29.11.55.1.25.29.44.19.19.44.3.26.1.55.1h.64q.29 0 .54-.1.25-.11.44-.3t.3-.44q.11-.26.11-.55m8.22-.05q0 .48-.18.91-.18.43-.5.75t-.75.51q-.43.18-.92.18h-.64q-.48 0-.91-.18-.43-.19-.75-.51t-.51-.75q-.18-.43-.18-.91v-3.61q0-.48.18-.91.19-.43.51-.75t.75-.51q.43-.18.91-.18h.64q.49 0 .92.18.43.19.75.51t.5.75q.18.43.18.91v1.88h-4.38v1.78q0 .29.11.55.11.25.3.44t.44.3q.25.1.54.1h.64q.29 0 .55-.1.25-.11.44-.3.18-.19.29-.44.11-.26.11-.55v-.53l.96.16zm-.96-2.48v-1.18q0-.29-.11-.55-.11-.25-.29-.44-.19-.19-.44-.3-.26-.11-.55-.11h-.64q-.29 0-.54.11-.25.11-.44.3t-.3.44q-.11.26-.11.55v1.18zm10.35 4.67h-.87q-.44 0-.82-.16-.39-.16-.68-.45-.28-.29-.45-.67-.17-.39-.17-.82v-4.98H250v-.92h1.43v-1.92l.96-.15v2.07h2.03v.92h-2.03v5.02q0 .24.09.45.09.21.25.36.16.16.37.25t.45.09h.87zm7.11-2.19q0 .48-.18.91-.18.43-.5.75t-.75.51q-.43.18-.92.18h-.64q-.48 0-.91-.18-.43-.19-.75-.51t-.51-.75q-.18-.43-.18-.91v-3.61q0-.48.18-.91.19-.43.51-.75t.75-.51q.43-.18.91-.18h.64q.49 0 .92.18.43.19.75.51t.5.75q.18.43.18.91zm-.96.05v-3.71q0-.29-.11-.55-.11-.25-.29-.44-.19-.19-.44-.3-.26-.11-.55-.11h-.64q-.29 0-.54.11-.25.11-.44.3t-.3.44q-.11.26-.11.55v3.71q0 .29.11.55.11.25.3.44t.44.3q.25.1.54.1h.64q.29 0 .55-.1.25-.11.44-.3.18-.19.29-.44.11-.26.11-.55m13.03-.45q0 .57-.22 1.07-.21.5-.59.88-.37.37-.87.59-.5.21-1.07.21h-.8q-.57 0-1.07-.21-.51-.22-.88-.59-.38-.38-.59-.88-.22-.5-.22-1.07v-6.01q0-.58.22-1.08.21-.5.59-.87.37-.38.88-.59.5-.21 1.07-.21h.8q.57 0 1.07.21.5.21.87.59.38.37.59.87.22.5.22 1.08v.45l-1.01.15v-.6q0-.38-.14-.7-.14-.33-.38-.57-.25-.24-.57-.38-.33-.14-.7-.14h-.7q-.38 0-.7.14-.33.14-.57.38-.25.24-.39.57-.14.32-.14.7v6.01q0 .38.14.7.14.32.39.57.24.25.57.39.32.14.7.14h.7q.37 0 .7-.14.32-.14.57-.39.24-.25.38-.57.14-.32.14-.7v-.61l1.01.17zm3.28-7.33h-1.12v-1.28h1.12zm-.08 9.92h-.96v-8h.96zm7.59 0h-.97v-5.85q0-.29-.1-.55-.11-.25-.3-.44t-.44-.3q-.26-.11-.55-.11h-.64q-.29 0-.54.11-.25.11-.44.3t-.3.44q-.11.26-.11.55v5.85h-.96v-8h.32l.53.82q.32-.45.82-.71.5-.26 1.08-.26h.24q.49 0 .92.18.43.19.75.51t.5.75q.19.43.19.91zm7.26-2.19q0 .48-.18.91-.19.43-.51.75t-.75.51q-.43.18-.91.18h-.64q-.49 0-.91-.18-.43-.19-.75-.51-.33-.32-.51-.75t-.18-.91v-3.61q0-.48.18-.91.18-.43.51-.75.32-.32.75-.51.42-.18.91-.18h.64q.48 0 .91.18.43.19.75.51t.51.75q.18.43.18.91v1.88h-4.38v1.78q0 .29.11.55.11.25.29.44.19.19.45.3.25.1.54.1h.64q.29 0 .54-.1.26-.11.44-.3.19-.19.3-.44.11-.26.11-.55v-.53l.96.16zm-.96-2.48v-1.18q0-.29-.11-.55-.11-.25-.3-.44-.18-.19-.44-.3-.25-.11-.54-.11h-.64q-.29 0-.54.11-.26.11-.45.3-.18.19-.29.44-.11.26-.11.55v1.18zm12.29 4.67h-.96v-5.85q0-.29-.11-.55-.11-.25-.3-.44t-.44-.3q-.25-.11-.54-.11h-.48q-.29 0-.54.11-.26.11-.45.3t-.3.44q-.11.26-.11.55v5.85h-.95v-5.85q0-.29-.11-.55-.11-.25-.3-.44t-.45-.3q-.25-.11-.54-.11h-.48q-.28 0-.54.11-.25.11-.44.3t-.3.44q-.11.26-.11.55v5.85h-.96v-8h.32l.53.82q.33-.45.82-.71.5-.26 1.08-.26h.08q.68 0 1.23.33.54.34.84.89.15-.27.37-.5.22-.22.48-.38.27-.16.58-.25.31-.09.65-.09h.08q.48 0 .91.18.43.19.75.51t.51.75q.18.43.18.91zm7.27 0h-.33l-.53-.79q-.32.43-.82.69-.49.26-1.07.26h-.25q-.48 0-.91-.18-.43-.19-.75-.51t-.51-.75q-.18-.43-.18-.91v-.08q0-.48.18-.91.19-.43.51-.75t.75-.51q.43-.18.91-.18h2.03v-1.23q0-.29-.11-.55-.1-.25-.29-.44-.19-.19-.44-.3-.26-.11-.55-.11h-.56q-.29 0-.54.11-.26.11-.44.3-.19.19-.3.44-.11.26-.11.55v.28l-.96-.15v-.08q0-.48.18-.91.19-.43.51-.75t.75-.51q.43-.18.91-.18h.56q.49 0 .92.18.43.19.75.51t.5.75q.19.43.19.91zm-.97-2.14v-1.73h-2.03q-.29 0-.54.11-.25.11-.44.3t-.3.45q-.11.25-.11.54v.33q0 .29.11.55.11.25.3.44t.44.3q.25.1.54.1h.64q.29 0 .55-.1.25-.11.44-.3t.29-.44q.11-.26.11-.55m6.68 2.14h-.88q-.44 0-.82-.16-.39-.16-.68-.45-.28-.29-.45-.67-.17-.39-.17-.82v-4.98h-1.43v-.92h1.43v-1.92l.96-.15v2.07h2.04v.92h-2.04v5.02q0 .24.09.45.09.21.25.36.16.16.37.25t.45.09h.88zm3.12-9.92h-1.12v-1.28h1.12zm-.08 9.92h-.96v-8h.96zm7.59-2.19q0 .48-.18.91-.19.43-.51.75t-.75.51q-.43.18-.91.18h-.64q-.49 0-.92-.18-.43-.19-.75-.51t-.5-.75q-.18-.43-.18-.91v-3.61q0-.48.18-.91.18-.43.5-.75t.75-.51q.43-.18.92-.18h.64q.48 0 .91.18.43.19.75.51t.51.75q.18.43.18.91v.32l-.96.16v-.53q0-.29-.11-.55-.11-.25-.3-.44t-.44-.3q-.25-.11-.54-.11h-.64q-.29 0-.55.11-.25.11-.44.3t-.29.44q-.11.26-.11.55v3.71q0 .29.11.55.1.25.29.44.19.19.44.3.26.1.55.1h.64q.29 0 .54-.1.25-.11.44-.3t.3-.44q.11-.26.11-.55v-.53l.96.16zm10.87 2.19-.75-2.6h-3.54l-.74 2.6h-1.04l3.28-11.2h.53l3.3 11.2zm-2.55-8.73-1.47 5.16h3.01l-1.48-5.16-.03-.41zm10.05 8.73h-.32l-.54-.81q-.32.45-.82.71-.49.26-1.07.26h-.25q-.48 0-.91-.18-.43-.19-.75-.51t-.5-.75q-.19-.43-.19-.91v-3.61q0-.48.19-.91.18-.43.5-.75t.75-.51q.43-.18.91-.18h.25q.54 0 1 .22.46.22.79.61v-3.88h.96zm-.96-2.14v-3.71q0-.29-.11-.55-.11-.25-.3-.44t-.44-.3q-.26-.11-.55-.11h-.64q-.29 0-.54.11-.25.11-.44.3t-.3.44q-.11.26-.11.55v3.71q0 .29.11.55.11.25.3.44t.44.3q.25.1.54.1h.64q.29 0 .55-.1.25-.11.44-.3t.3-.44q.11-.26.11-.55m8.22-5.86-2.83 8h-.48l-2.84-8h.96l2.09 6.07.03.41.03-.41 2.08-6.07zm6.46 5.81q0 .48-.18.91-.18.43-.5.75-.33.32-.75.51-.43.18-.92.18h-.64q-.48 0-.91-.18-.43-.19-.75-.51t-.51-.75q-.18-.43-.18-.91v-3.61q0-.48.18-.91.19-.43.51-.75t.75-.51q.43-.18.91-.18h.64q.49 0 .92.18.42.19.75.51.32.32.5.75t.18.91v1.88h-4.38v1.78q0 .29.11.55.11.25.3.44.18.19.44.3.25.1.54.1h.64q.29 0 .54-.1.26-.11.45-.3.18-.19.29-.44.11-.26.11-.55v-.53l.96.16zm-.96-2.48v-1.18q0-.29-.11-.55-.11-.25-.29-.44-.19-.19-.45-.3-.25-.11-.54-.11h-.64q-.29 0-.54.11-.26.11-.44.3-.19.19-.3.44-.11.26-.11.55v1.18zm8.23 4.67h-.96v-5.85q0-.29-.11-.55-.11-.25-.3-.44t-.44-.3q-.25-.11-.54-.11h-.64q-.29 0-.55.11-.25.11-.44.3t-.3.44q-.1.26-.1.55v5.85h-.97v-8h.32l.53.82q.33-.45.82-.71.5-.26 1.08-.26h.25q.48 0 .91.18.43.19.75.51t.5.75q.19.43.19.91zm5.71 0h-.88q-.43 0-.82-.16-.39-.16-.67-.45-.29-.29-.46-.67-.16-.39-.16-.82v-4.98h-1.44v-.92h1.44v-1.92l.96-.15v2.07h2.03v.92h-2.03v5.02q0 .24.09.45.09.21.24.36.16.16.37.25t.45.09h.88zm7.11 0h-.32l-.53-.81q-.33.45-.82.71-.5.26-1.08.26h-.24q-.49 0-.92-.18-.43-.19-.75-.51t-.5-.75q-.19-.43-.19-.91v-5.81h.97v5.86q0 .29.11.55.1.25.29.44.19.19.44.3.26.1.55.1h.64q.29 0 .54-.1.25-.11.44-.3t.3-.44q.11-.26.11-.55v-5.86h.96zm5.23-7.08h-.96q-.29 0-.54.11-.25.11-.44.29-.19.19-.3.45-.11.25-.11.54v5.69h-.96v-8h.32l.52.82q.33-.45.83-.71.49-.26 1.08-.26h.56zm6.63 4.89q0 .48-.19.91-.18.43-.5.75t-.75.51q-.43.18-.91.18h-.64q-.49 0-.92-.18-.43-.19-.75-.51t-.5-.75q-.19-.43-.19-.91v-3.61q0-.48.19-.91.18-.43.5-.75t.75-.51q.43-.18.92-.18h.64q.48 0 .91.18.43.19.75.51t.5.75q.19.43.19.91v1.88h-4.38v1.78q0 .29.1.55.11.25.3.44t.44.3q.26.1.55.1h.64q.29 0 .54-.1.25-.11.44-.3t.3-.44q.11-.26.11-.55v-.53l.96.16zm-.96-2.48v-1.18q0-.29-.11-.55-.11-.25-.3-.44t-.44-.3q-.25-.11-.54-.11h-.64q-.29 0-.55.11-.25.11-.44.3t-.3.44q-.1.26-.1.55v1.18z"></path><circle r="115.905" fill="#fff" transform="translate(286.554 116.76)scale(.9754)"></circle><path fill="#002a29" d="M344.986 72.803h-82.115c-1.04 0-1.906.693-2.252 1.733l-22.002 82.289c-.346 1.385.693 2.771 2.252 2.771h82.116c1.04 0 1.906-.693 2.252-1.732l22.002-82.289c.346-1.386-.693-2.772-2.253-2.772m-87.659 73.107-1.732 6.41c-.347 1.04-1.213 1.733-2.252 1.733h-6.237c-1.56 0-2.599-1.386-2.252-2.772l1.732-6.41c.347-1.04 1.213-1.732 2.252-1.732h6.237c1.56-.174 2.772 1.212 2.252 2.771m27.025-59.248 1.733-6.41c.346-1.039 1.213-1.732 2.252-1.732h6.237c1.559 0 2.598 1.386 2.252 2.772l-1.733 6.41c-.346 1.04-1.212 1.732-2.252 1.732h-6.236c-1.56.173-2.772-1.212-2.253-2.772m-22.174 0 1.732-6.41c.347-1.039 1.213-1.732 2.252-1.732h6.237c1.56 0 2.599 1.386 2.252 2.772l-1.732 6.41c-.347 1.04-1.213 1.732-2.252 1.732h-6.237c-1.56.173-2.599-1.212-2.252-2.772m17.324 59.248-1.733 6.41c-.346 1.04-1.212 1.733-2.252 1.733h-6.236c-1.56 0-2.599-1.386-2.253-2.772l1.733-6.41c.346-1.04 1.213-1.732 2.252-1.732h6.237c1.559-.174 2.598 1.212 2.252 2.771m22.001 0-1.732 6.41c-.347 1.04-1.213 1.733-2.252 1.733h-6.237c-1.56 0-2.599-1.386-2.252-2.772l1.732-6.41c.347-1.04 1.213-1.732 2.252-1.732h6.237c1.56-.174 2.599 1.212 2.252 2.771m.866-27.545L282.1 134.477c-2.425 1.905-5.197.52-4.504-2.08l8.662-32.049c.693-2.598 4.331-3.984 5.544-2.079l11.78 16.112c.866 1.04.347 2.772-1.213 3.984m3.985-31.703 1.732-6.41c.347-1.039 1.213-1.732 2.252-1.732h6.237c1.56 0 2.599 1.386 2.252 2.772l-1.732 6.41c-.347 1.04-1.213 1.732-2.252 1.732h-6.237c-1.56.173-2.772-1.212-2.252-2.772m17.15 59.248-1.732 6.41c-.346 1.04-1.212 1.733-2.252 1.733h-6.236c-1.56 0-2.599-1.386-2.253-2.772l1.733-6.41c.346-1.04 1.213-1.732 2.252-1.732h6.237c1.559-.174 2.598 1.212 2.252 2.771m17.324-64.445-1.733 6.41c-.346 1.04-1.212 1.732-2.252 1.732h-6.236c-1.56 0-2.599-1.385-2.253-2.771l1.733-6.41c.346-1.04 1.213-1.733 2.252-1.733h6.237c1.559-.173 2.598 1.213 2.252 2.772M228.916 95.671H245.2c1.733 0 2.945-1.386 2.945-2.945 0-1.733-1.386-2.945-2.945-2.945h-16.284c-1.733 0-2.945 1.386-2.945 2.945 0 1.732 1.386 2.945 2.945 2.945m-1.733 15.765h12.82c1.732 0 2.945-1.386 2.945-2.945 0-1.733-1.386-2.945-2.945-2.945h-12.82c-1.732 0-2.945 1.385-2.945 2.945 0 1.559 1.386 2.945 2.945 2.945m10.741 9.701h-9.008c-1.733 0-2.945 1.386-2.945 2.945 0 1.733 1.386 2.945 2.945 2.945h9.008c1.733 0 2.945-1.386 2.945-2.945s-1.386-2.945-2.945-2.945m-5.89 15.765h-4.85c-1.733 0-2.946 1.386-2.946 2.945 0 1.732 1.386 2.945 2.945 2.945h4.851c1.732 0 2.945-1.386 2.945-2.945 0-1.732-1.213-2.945-2.945-2.945"></path></svg></svg>