<?xml version="1.0" standalone="no"?>
<!DOCTYPE svg PUBLIC "-//W3C//DTD SVG 20010904//EN"
 "http://www.w3.org/TR/2001/REC-SVG-20010904/DTD/svg10.dtd">
<svg version="1.0" xmlns="http://www.w3.org/2000/svg"
 width="1108.000000pt" height="887.000000pt" viewBox="0 0 1108.000000 887.000000"
 preserveAspectRatio="xMidYMid meet">

<g transform="translate(0.000000,887.000000) scale(0.100000,-0.100000)"
fill="#000000" stroke="none">
<path d="M5439 7255 c-63 -23 -111 -60 -218 -168 l-104 -105 59 -17 c32 -9 71
-23 87 -31 28 -15 28 -14 115 71 48 47 95 88 106 91 15 5 16 8 5 15 -11 8 -10
12 5 24 26 20 36 19 36 -4 0 -14 10 -20 41 -25 30 -5 54 -19 93 -56 32 -30 62
-50 76 -50 16 0 20 -4 16 -15 -7 -19 5 -19 30 0 18 13 64 21 64 10 0 -14 -37
-45 -54 -45 -19 0 -18 -2 6 -27 26 -26 27 -26 62 -9 20 9 35 22 33 29 -1 8 9
11 28 9 17 -1 37 2 45 8 12 8 10 14 -13 38 -18 19 -35 28 -47 25 -21 -6 -38
16 -21 26 7 5 -22 40 -81 97 -77 74 -103 92 -149 107 -65 20 -169 21 -220 2z
m21 -35 c0 -12 -28 -25 -36 -17 -9 9 6 27 22 27 8 0 14 -5 14 -10z m150 -40
c0 -5 -2 -10 -4 -10 -3 0 -8 5 -11 10 -3 6 -1 10 4 10 6 0 11 -4 11 -10z
m-240 -10 c0 -5 -4 -10 -10 -10 -5 0 -10 5 -10 10 0 6 5 10 10 10 6 0 10 -4
10 -10z m30 -20 c0 -5 -4 -10 -10 -10 -5 0 -10 5 -10 10 0 6 5 10 10 10 6 0
10 -4 10 -10z m367 -46 c-3 -4 -14 -3 -24 0 -15 6 -15 8 -3 16 16 10 39 -4 27
-16z m-77 -34 c0 -5 -4 -10 -9 -10 -6 0 -13 5 -16 10 -3 6 1 10 9 10 9 0 16
-4 16 -10z m-452 -27 c-2 -12 -11 -17 -23 -15 -28 5 -32 12 -15 22 24 15 42
11 38 -7z m592 3 c0 -13 -39 -30 -48 -21 -8 7 20 35 34 35 8 0 14 -6 14 -14z
m60 -64 c0 -13 -12 -22 -22 -16 -10 6 -1 24 13 24 5 0 9 -4 9 -8z"/>
<path d="M4843 6909 c-69 -11 -194 -62 -252 -101 -200 -138 -313 -358 -298
-586 4 -62 9 -89 21 -97 10 -8 12 -15 6 -21 -16 -16 27 -127 79 -207 54 -82
133 -160 204 -201 l48 -28 -37 -32 c-34 -30 -38 -37 -43 -102 -7 -81 0 -80
-130 -24 -169 73 -170 72 -171 -199 0 -275 0 -275 179 -196 56 25 106 45 111
45 6 0 10 -128 10 -350 0 -392 1 -399 64 -420 23 -7 112 -11 253 -10 284 2
263 3 263 -19 0 -11 11 -33 25 -49 17 -21 25 -42 25 -69 0 -27 6 -46 20 -58
27 -24 26 -30 -20 -103 -22 -34 -71 -131 -109 -215 -38 -83 -81 -178 -96 -209
l-26 -58 -53 0 c-43 0 -57 4 -76 25 -13 14 -29 25 -37 25 -7 0 -13 6 -13 13 0
20 -47 61 -55 48 -8 -13 -55 -15 -55 -2 0 5 12 14 28 19 l27 9 -33 29 c-18 16
-81 77 -140 137 -58 59 -114 107 -124 107 -10 0 -15 5 -13 13 3 7 -132 150
-310 327 -232 231 -321 314 -335 312 -11 -2 -20 2 -20 7 0 6 6 11 12 11 7 0
-46 60 -118 133 -72 72 -139 143 -148 157 -23 35 -21 117 5 160 11 19 126 139
255 266 129 127 234 239 234 248 0 9 8 16 19 16 11 0 70 54 145 132 114 120
124 133 105 140 -13 5 -19 14 -16 22 3 8 -1 17 -10 20 -11 5 -12 10 -5 19 8 9
8 25 -1 55 l-13 41 -302 -302 c-166 -166 -302 -308 -302 -315 0 -6 -6 -12 -13
-12 -16 0 -107 -92 -107 -108 0 -7 -4 -11 -9 -8 -4 3 -19 -6 -31 -19 -13 -14
-18 -25 -12 -25 7 0 12 -7 12 -15 0 -8 -7 -15 -15 -15 -8 0 -15 5 -15 12 0 23
-51 -37 -78 -91 -36 -76 -38 -200 -4 -276 23 -52 218 -260 244 -260 7 0 13 -7
13 -15 0 -23 743 -756 763 -752 12 2 13 0 5 -6 -9 -5 27 -47 117 -137 72 -71
130 -135 130 -142 0 -13 -42 -20 -185 -27 -308 -17 -561 -40 -576 -52 -18 -16
-53 -19 -44 -4 8 13 -15 12 -155 -6 -63 -8 -124 -15 -135 -16 -76 -3 -450 -50
-454 -56 -4 -5 -26 -8 -51 -8 -25 0 -70 -3 -100 -7 -231 -34 -421 -64 -643
-102 -142 -25 -261 -45 -263 -45 -2 0 -4 -7 -4 -15 0 -17 -26 -21 -32 -5 -4
14 -814 -153 -832 -171 -3 -2 10 -65 28 -139 l32 -135 64 -21 c61 -20 121 -48
163 -77 15 -10 20 -9 32 7 20 27 37 12 24 -22 -9 -23 -7 -30 14 -48 36 -31
102 -145 116 -201 7 -26 16 -57 20 -68 13 -34 2 -166 -19 -235 -24 -80 -81
-170 -143 -227 l-47 -43 36 -147 c19 -81 37 -149 39 -152 3 -2 52 7 109 19 92
21 105 26 103 43 -1 11 4 22 11 24 7 3 12 -4 12 -17 0 -18 4 -21 23 -16 39 11
237 54 402 87 88 18 163 37 166 41 3 5 13 6 22 2 9 -3 51 1 94 10 257 53 1306
196 1437 196 23 0 39 5 42 15 6 15 34 21 34 7 0 -7 31 -6 470 22 135 8 307 18
383 22 103 5 137 10 137 20 0 8 11 12 30 12 20 -1 30 -6 30 -16 0 -12 13 -14
78 -9 42 4 224 7 404 8 242 0 328 3 332 12 3 9 7 9 13 0 5 -7 68 -13 178 -17
328 -13 592 -26 803 -42 190 -14 215 -14 225 -1 16 20 57 32 57 16 0 -6 -8
-18 -17 -25 -17 -12 -16 -13 7 -14 80 -3 551 -52 670 -70 36 -6 92 -13 125
-15 33 -3 71 -7 85 -10 190 -33 287 -44 310 -34 19 8 26 7 36 -5 12 -17 497
-111 522 -101 7 3 27 -2 43 -10 16 -9 49 -17 73 -19 24 -2 48 -6 52 -9 5 -3
34 -10 64 -16 30 -6 84 -17 119 -25 35 -8 71 -12 79 -9 8 3 17 1 21 -5 10 -17
188 -51 201 -38 8 8 15 6 24 -6 7 -10 27 -21 44 -24 34 -7 31 -13 58 111 9 44
23 102 30 128 l14 49 -46 48 c-89 94 -141 186 -159 283 -5 27 -12 37 -26 37
-25 0 -24 20 1 27 17 5 20 14 20 58 0 33 -5 55 -12 59 -10 3 -9 8 2 18 15 13
50 93 50 115 0 6 -20 13 -45 15 l-46 3 -21 -68 c-12 -42 -18 -82 -15 -103 3
-19 1 -36 -5 -40 -6 -4 -8 -25 -3 -58 4 -28 9 -63 11 -78 12 -89 71 -210 141
-289 l47 -51 -14 -61 c-7 -34 -14 -71 -15 -82 -1 -11 -8 -19 -16 -17 -8 2 -23
5 -34 6 -12 1 -25 5 -30 8 -6 3 -134 31 -285 62 -151 31 -283 58 -293 61 -15
3 -16 1 -6 -11 6 -8 9 -17 6 -20 -9 -9 -66 6 -74 19 -14 22 -48 34 -123 47
-54 9 -75 10 -78 1 -2 -6 -8 -11 -14 -11 -6 0 -8 6 -5 14 6 14 -3 16 -258 56
-71 11 -158 25 -192 31 -35 6 -70 8 -79 5 -9 -4 -22 -2 -28 3 -10 8 -136 29
-181 29 -11 0 -66 8 -123 16 -57 9 -107 14 -112 11 -4 -3 -21 -1 -36 5 -16 5
-156 21 -312 35 -275 26 -284 27 -297 9 -14 -18 -15 -18 -21 3 -6 20 -13 23
-68 25 -69 2 -63 2 -366 22 -124 9 -274 16 -335 17 -60 1 -274 3 -475 6 -270
3 -371 1 -387 -8 -17 -9 -26 -9 -36 -1 -14 12 -416 2 -727 -18 -85 -5 -202
-12 -260 -15 -58 -4 -222 -18 -365 -32 -143 -14 -282 -27 -310 -29 -48 -4 -62
-8 -121 -36 -20 -10 -27 -9 -33 1 -12 18 -147 5 -155 -15 -6 -16 -33 -19 -38
-3 -4 11 -271 -25 -673 -92 -362 -60 -539 -97 -597 -124 -33 -15 -55 -20 -59
-14 -7 12 -32 8 -212 -32 -71 -16 -133 -27 -138 -24 -9 6 -23 54 -34 116 -6
32 -2 41 40 90 61 71 91 123 123 212 22 61 25 89 26 187 0 100 -4 124 -27 186
-42 111 -75 163 -157 245 -53 53 -97 86 -149 112 -41 20 -80 37 -87 37 -18 0
-55 55 -48 73 3 8 -4 24 -17 36 -12 11 -21 23 -18 25 2 2 92 24 200 48 135 30
194 47 191 56 -2 6 1 12 6 12 6 0 12 -5 14 -11 2 -7 64 2 183 25 213 42 598
112 673 122 29 4 59 13 67 20 9 10 27 12 57 8 24 -3 84 2 133 11 50 8 110 18
135 20 25 3 110 14 190 25 553 75 1145 126 1750 151 309 12 301 12 318 22 7 5
12 4 12 -3 0 -7 119 -9 393 -8 l392 3 -2 23 c-3 28 9 28 22 0 12 -28 48 -32
356 -42 212 -7 217 -7 222 14 6 23 37 28 37 5 0 -8 -5 -15 -11 -15 -5 0 -8 -4
-5 -8 3 -5 67 -12 143 -16 164 -8 504 -34 551 -41 28 -5 32 -3 32 15 0 15 5
20 18 18 9 -2 16 -11 16 -20 -2 -19 1 -19 191 -38 61 -6 182 -19 270 -30 88
-11 176 -22 195 -24 19 -2 102 -14 184 -26 82 -12 157 -19 167 -17 10 3 19 2
21 -2 2 -3 131 -28 288 -54 441 -75 617 -108 905 -172 83 -18 179 -38 213 -45
35 -7 66 -19 69 -26 2 -7 0 -37 -7 -67 l-11 -55 -58 -21 c-82 -30 -167 -88
-232 -158 -65 -71 -138 -190 -94 -153 11 9 22 9 47 0 31 -10 34 -9 53 17 34
48 140 150 175 168 18 9 67 29 109 44 l76 27 33 133 c18 74 30 136 28 139 -3
3 -110 29 -238 58 -174 40 -234 50 -240 41 -5 -9 -10 -8 -20 4 -14 17 -26 20
-418 94 -591 112 -1180 192 -1835 249 -503 44 -589 50 -593 37 -2 -6 -10 -11
-18 -11 -9 0 -13 4 -10 9 3 5 -19 12 -49 16 -30 3 -55 10 -55 15 0 4 200 208
445 452 245 244 445 450 445 456 0 7 -8 12 -18 12 -10 0 -43 15 -74 34 l-56
33 -191 -191 c-105 -105 -191 -199 -191 -209 0 -10 -8 -17 -18 -17 -19 0 -382
-358 -382 -378 0 -6 -6 -12 -13 -12 -7 0 -53 -40 -102 -90 -88 -89 -90 -90
-138 -90 l-48 0 -43 93 c-24 50 -64 136 -90 189 -25 53 -46 100 -46 104 0 4
-20 39 -44 78 -23 39 -46 76 -50 83 -3 6 6 25 20 43 21 25 25 38 21 65 -4 27
-1 38 14 48 10 8 24 28 30 45 l11 32 243 0 c134 0 254 4 268 9 45 17 61 57 67
166 l5 100 48 3 47 3 0 45 c0 44 0 44 35 44 32 0 35 -2 35 -31 0 -29 2 -30 38
-27 l37 3 3 64 c2 45 -1 67 -10 72 -7 5 32 9 90 9 122 0 121 1 336 -141 158
-105 189 -116 226 -79 19 19 20 33 20 449 l0 430 -26 20 c-15 12 -35 21 -44
21 -10 0 -99 -53 -199 -119 -102 -67 -195 -121 -213 -124 -18 -3 -64 -4 -103
-4 l-70 2 -3 73 -3 72 -39 0 c-35 0 -39 -3 -42 -27 -3 -24 -8 -28 -33 -28 -28
0 -30 3 -35 45 l-5 45 -52 3 -53 3 0 62 c0 41 -5 70 -16 85 -9 13 -14 25 -13
26 2 2 29 17 59 34 90 51 230 197 230 239 0 9 7 21 15 27 8 6 27 45 42 86 35
98 44 271 18 369 -24 94 -70 184 -135 264 -70 87 -132 136 -231 181 -327 151
-718 14 -872 -306 -17 -38 -34 -68 -37 -68 -4 0 -11 15 -18 34 -21 58 -92 159
-158 223 -45 44 -89 74 -156 107 -139 69 -263 89 -405 65z m117 -39 c0 -5 -8
-10 -17 -10 -15 0 -16 2 -3 10 19 12 20 12 20 0z m1435 -50 c143 -49 282 -166
342 -291 15 -32 33 -59 40 -59 7 0 12 -12 11 -27 -1 -16 4 -64 10 -108 14 -95
4 -205 -27 -284 -18 -44 -19 -51 -5 -51 8 0 13 -4 9 -10 -3 -5 -11 -7 -18 -5
-7 3 -29 -21 -49 -53 -50 -77 -90 -117 -172 -170 -68 -44 -182 -91 -222 -92
-11 0 -24 -4 -30 -9 -5 -6 -40 -6 -89 0 -44 5 -97 7 -118 3 -30 -5 -36 -3 -32
9 4 10 -7 18 -39 27 -70 19 -186 101 -245 172 -238 289 -167 708 152 892 39
22 67 45 67 55 0 12 2 13 9 3 7 -11 20 -10 72 6 90 28 238 24 334 -8z m-435
-10 c0 -5 -5 -10 -11 -10 -5 0 -7 5 -4 10 3 6 8 10 11 10 2 0 4 -4 4 -10z
m-1129 -81 c77 -102 -21 -235 -150 -203 -72 18 -104 121 -54 176 55 61 167 76
204 27z m422 -3 c85 -65 61 -178 -44 -206 -37 -10 -47 -9 -78 8 -75 42 -102
125 -61 187 25 38 44 45 101 41 31 -2 58 -12 82 -30z m-182 -264 c25 -16 60
-48 78 -71 29 -36 34 -52 39 -110 5 -81 -22 -156 -74 -199 -93 -76 -90 -74
-157 -67 -80 9 -123 28 -168 71 -40 39 -64 87 -74 147 -3 20 -11 37 -17 37 -7
0 -5 5 3 13 9 6 24 33 33 59 10 27 33 60 55 80 21 18 46 40 57 50 14 12 40 17
100 17 72 1 85 -2 125 -27z m329 -26 c0 -3 -4 -8 -10 -11 -5 -3 -10 -1 -10 4
0 6 5 11 10 11 6 0 10 -2 10 -4z m-833 -68 c12 -6 32 -29 44 -52 28 -53 21
-102 -22 -150 -50 -58 -131 -55 -173 6 -24 35 -21 138 5 172 33 42 90 52 146
24z m897 -4 c11 -8 30 -14 41 -15 11 0 15 -3 9 -5 -8 -3 -10 -26 -7 -68 7 -77
-12 -119 -63 -143 -31 -15 -39 -16 -76 -3 -52 19 -79 55 -85 113 -4 36 -1 53
17 81 12 20 17 36 11 36 -6 0 -11 5 -11 11 0 6 9 8 20 4 11 -3 28 -1 37 4 21
13 79 5 107 -15z m-1014 -268 c0 -3 -4 -8 -10 -11 -5 -3 -10 -1 -10 4 0 6 5
11 10 11 6 0 10 -2 10 -4z m339 -124 c76 -41 92 -141 31 -194 -37 -34 -84 -37
-138 -9 -45 23 -66 46 -80 89 -9 27 -8 38 10 67 37 64 110 83 177 47z m91 8
c-19 -13 -30 -13 -30 0 0 6 10 10 23 10 18 0 19 -2 7 -10z m370 -7 c35 -20 53
-53 53 -93 0 -44 -18 -72 -67 -103 -56 -35 -102 -35 -149 1 -32 23 -36 32 -37
70 0 24 7 56 15 73 33 62 124 88 185 52z m393 -109 c31 -40 87 -95 122 -123
36 -28 65 -54 65 -56 0 -8 -100 44 -147 76 -22 16 -62 50 -88 75 l-46 47 -57
-54 c-31 -30 -68 -61 -82 -68 -14 -8 -49 -30 -79 -48 -66 -40 -89 -43 -41 -6
73 57 162 149 208 216 l47 69 20 -28 c11 -15 46 -60 78 -100z m-25 88 c2 -7
-3 -12 -12 -12 -9 0 -16 7 -16 16 0 17 22 14 28 -4z m-1405 -19 c-13 -2 -33
-2 -45 0 -13 2 -3 4 22 4 25 0 35 -2 23 -4z m767 -40 c-1 -15 -81 -46 -91 -36
-8 8 39 30 89 42 1 1 2 -2 2 -6z m-792 -42 c1 -1 2 -5 2 -11 0 -5 -20 -10 -45
-10 -34 0 -45 4 -45 16 0 12 9 14 43 10 23 -3 43 -5 45 -5z m-153 -12 c8 -11
-22 -38 -42 -39 -19 0 -16 27 5 39 22 13 29 13 37 0z m622 -75 c9 -23 -13 -40
-32 -24 -8 7 -15 19 -15 26 0 19 39 18 47 -2z m-806 -109 c0 -5 -9 -11 -21
-13 -20 -3 -27 8 -13 22 10 9 34 3 34 -9z m956 -1 c-3 -3 -12 -4 -19 -1 -8 3
-5 6 6 6 11 1 17 -2 13 -5z m1606 -46 c54 -21 57 -40 57 -360 0 -209 -3 -289
-11 -281 -6 6 -13 76 -16 166 -3 86 -9 156 -12 155 -26 -3 -61 4 -57 10 3 5
19 7 36 4 l30 -4 0 71 c0 64 -2 71 -20 71 -11 0 -20 5 -20 11 0 6 9 13 20 16
41 11 18 95 -31 112 -23 8 -280 11 -885 11 -776 0 -874 3 -851 22 7 6 766 13
1217 10 353 -1 524 -6 543 -14z m-2509 -27 c7 -11 -17 -21 -50 -21 -25 0 -33
15 -11 23 20 9 55 8 61 -2z m-131 -38 c-7 -2 -19 -2 -25 0 -7 3 -2 5 12 5 14
0 19 -2 13 -5z m1577 -3 c0 -5 -4 -10 -10 -10 -5 0 -10 5 -10 10 0 6 5 10 10
10 6 0 10 -4 10 -10z m385 -70 c-3 -5 -12 -7 -20 -3 -21 7 -19 13 6 13 11 0
18 -4 14 -10z m-1410 -20 c3 -5 2 -10 -4 -10 -5 0 -13 5 -16 10 -3 6 -2 10 4
10 5 0 13 -4 16 -10z m19 -41 c-6 -11 -24 -2 -24 11 0 5 7 7 15 4 8 -4 12 -10
9 -15z m-610 2 c3 -5 -3 -11 -14 -14 -20 -5 -35 5 -23 17 9 9 31 7 37 -3z
m2226 5 c0 -11 -19 -15 -25 -6 -3 5 1 10 9 10 9 0 16 -2 16 -4z m-471 -270
c38 -164 57 -233 63 -220 4 10 28 109 53 219 25 110 47 210 50 223 5 21 10 22
95 22 92 0 109 -9 73 -36 -26 -18 -27 -255 -1 -280 15 -16 15 -19 -4 -44 -18
-25 -20 -40 -17 -144 4 -107 6 -117 27 -132 12 -8 20 -20 17 -25 -10 -15 -225
-12 -225 4 0 7 9 18 20 25 18 11 20 23 19 135 0 138 -4 134 -44 -45 l-28 -128
-73 0 -72 0 -32 138 c-17 75 -33 142 -35 147 -2 6 -4 -46 -4 -115 -1 -116 1
-126 19 -138 35 -21 12 -32 -66 -32 -77 0 -95 12 -54 38 18 11 20 23 20 136 0
98 -3 126 -15 136 -8 7 -15 18 -15 25 0 7 7 18 15 25 12 10 15 38 15 136 0
113 -2 125 -20 136 -11 7 -20 19 -20 26 0 10 22 12 92 10 l93 -3 54 -239z
m-1837 219 c0 -5 -5 -11 -11 -13 -6 -2 -11 4 -11 13 0 9 5 15 11 13 6 -2 11
-8 11 -13z m2468 -55 c0 -5 -5 -10 -11 -10 -5 0 -7 5 -4 10 3 6 8 10 11 10 2
0 4 -4 4 -10z m-1567 -6 c11 -11 -3 -24 -18 -18 -8 4 -12 10 -9 15 6 11 18 12
27 3z m1781 -23 c19 -21 18 -52 -1 -59 -8 -2 -13 5 -13 16 0 11 -7 25 -15 32
-8 7 -15 16 -15 21 0 16 26 10 44 -10z m994 0 c3 -8 -1 -12 -9 -9 -7 2 -15 10
-17 17 -3 8 1 12 9 9 7 -2 15 -10 17 -17z m-2583 -22 c8 -13 6 -15 -24 -24
-17 -5 -21 -4 -16 5 4 7 1 16 -6 21 -10 6 -6 9 13 9 15 0 30 -5 33 -11z m-435
-49 c0 -5 -2 -10 -4 -10 -3 0 -8 5 -11 10 -3 6 -1 10 4 10 6 0 11 -4 11 -10z
m1633 -7 c-7 -2 -21 -2 -30 0 -10 3 -4 5 12 5 17 0 24 -2 18 -5z m1262 -13 c3
-5 1 -10 -4 -10 -6 0 -11 5 -11 10 0 6 2 10 4 10 3 0 8 -4 11 -10z m-675 -40
c0 -5 -7 -10 -15 -10 -8 0 -15 5 -15 10 0 6 7 10 15 10 8 0 15 -4 15 -10z
m-1520 -20 c0 -5 -7 -10 -16 -10 -8 0 -12 5 -9 10 3 6 10 10 16 10 5 0 9 -4 9
-10z m1590 -25 c17 -20 -7 -20 -34 0 -19 15 -19 15 1 15 11 0 26 -7 33 -15z
m700 -4 c0 -10 -30 -24 -37 -17 -3 3 -2 9 2 15 8 13 35 15 35 2z m-2610 -21
c0 -5 -7 -10 -16 -10 -8 0 -12 5 -9 10 3 6 10 10 16 10 5 0 9 -4 9 -10z m2488
-8 c2 -7 -2 -10 -12 -6 -9 3 -16 11 -16 16 0 13 23 5 28 -10z m-2364 -112
c-15 -15 -164 -26 -164 -12 0 14 28 19 110 21 42 1 61 -2 54 -9z m171 -9 c6
-10 -25 -31 -45 -31 -8 0 -8 6 0 20 11 21 35 27 45 11z m1975 -51 c0 -5 -5
-10 -11 -10 -5 0 -7 5 -4 10 3 6 8 10 11 10 2 0 4 -4 4 -10z m-560 -60 c0 -5
-4 -10 -9 -10 -6 0 -13 5 -16 10 -3 6 1 10 9 10 9 0 16 -4 16 -10z m-2800 -80
c0 -5 -4 -10 -10 -10 -5 0 -10 5 -10 10 0 6 5 10 10 10 6 0 10 -4 10 -10z m5
-30 c3 -5 -1 -10 -9 -10 -9 0 -16 5 -16 10 0 6 4 10 9 10 6 0 13 -4 16 -10z
m2085 -220 c0 -5 -7 -10 -16 -10 -8 0 -12 5 -9 10 3 6 10 10 16 10 5 0 9 -4 9
-10z m-465 -20 c-4 -6 26 -10 82 -10 379 -2 1122 -1 1129 1 14 4 54 -11 54
-21 0 -4 -8 -17 -17 -29 -18 -21 -25 -22 -317 -24 -229 -1 -300 -5 -304 -14
-2 -9 8 -13 32 -13 23 0 36 -5 36 -13 0 -19 -21 -37 -42 -37 -12 0 -18 -8 -18
-23 0 -46 -7 -47 -309 -47 -158 0 -291 4 -297 8 -7 4 -14 18 -15 32 -3 16 -12
26 -28 30 -13 3 -28 15 -32 28 -8 20 -5 22 27 22 24 0 34 4 32 13 -4 9 -74 13
-298 15 -255 2 -296 5 -312 19 -23 20 -23 40 0 47 9 3 121 5 247 5 335 0 337
0 330 11 -3 6 1 10 10 10 9 0 13 -4 10 -10z m-1287 -25 c22 -20 24 -25 9 -25
-24 0 -68 30 -61 41 9 15 23 10 52 -16z m3087 -115 c3 -5 -1 -10 -10 -10 -9 0
-13 5 -10 10 3 6 8 10 10 10 2 0 7 -4 10 -10z m-3065 -30 c0 -5 -4 -10 -10
-10 -5 0 -10 5 -10 10 0 6 5 10 10 10 6 0 10 -4 10 -10z m3030 -50 c0 -5 -9
-10 -21 -10 -11 0 -17 -4 -14 -11 4 -5 -7 -15 -23 -21 -27 -10 -29 -13 -14
-24 14 -10 13 -12 -7 -19 -13 -4 -28 -2 -33 3 -14 14 -3 42 16 42 8 0 27 11
42 25 28 26 54 33 54 15z m-2930 -35 c0 -8 -4 -15 -9 -15 -13 0 -22 16 -14 24
11 11 23 6 23 -9z m1340 -15 c0 -5 -7 -10 -16 -10 -8 0 -12 5 -9 10 3 6 10 10
16 10 5 0 9 -4 9 -10z m-1160 -70 c0 -5 -4 -10 -10 -10 -5 0 -10 5 -10 10 0 6
5 10 10 10 6 0 10 -4 10 -10z m0 -30 c0 -5 -4 -10 -10 -10 -5 0 -10 -9 -10
-20 0 -15 -7 -20 -25 -20 -32 0 -31 5 3 35 29 26 42 31 42 15z m2548 -42 c-5
-15 -48 -24 -48 -10 0 14 12 22 33 22 10 0 17 -5 15 -12z m57 2 c3 -5 -1 -10
-9 -10 -9 0 -16 5 -16 10 0 6 4 10 9 10 6 0 13 -4 16 -10z m-2500 -30 c3 -5
-1 -10 -9 -10 -9 0 -16 5 -16 10 0 6 4 10 9 10 6 0 13 -4 16 -10z m2445 -10
c0 -5 -7 -10 -16 -10 -8 0 -12 5 -9 10 3 6 10 10 16 10 5 0 9 -4 9 -10z
m-1365 -40 c3 -5 -1 -10 -10 -10 -9 0 -13 5 -10 10 3 6 8 10 10 10 2 0 7 -4
10 -10z m-173 -57 c28 -25 22 -68 -21 -141 -21 -37 -50 -90 -64 -118 -37 -74
-50 -84 -108 -84 -58 0 -59 5 -21 76 15 27 53 100 84 161 32 61 63 113 70 116
24 10 41 7 60 -10z m660 0 c23 -26 168 -310 168 -328 0 -19 -92 -21 -108 -2
-27 33 -152 270 -152 287 0 25 34 60 58 60 11 0 26 -8 34 -17z m-309 -91 c15
-13 17 -31 15 -126 l-3 -111 -66 -3 -66 -3 -6 108 -7 108 31 28 c34 31 67 31
102 -1z m-197 -24 c32 -22 32 -24 36 -113 2 -49 3 -93 1 -97 -3 -5 -65 -8
-139 -8 l-134 0 6 28 c4 15 13 32 19 37 7 6 31 42 53 81 55 95 96 114 158 72z
m387 2 c15 -12 51 -65 81 -118 l55 -97 -34 -3 c-25 -2 -32 -7 -28 -18 3 -9 -2
-14 -16 -14 -12 0 -21 6 -21 15 0 12 -17 15 -91 15 l-92 0 7 91 c7 95 17 121
51 138 32 15 60 13 88 -9z m-1043 -160 c0 -11 4 -20 9 -20 5 0 12 -13 16 -29
3 -16 13 -32 21 -35 29 -11 13 -25 -23 -19 -46 7 -52 11 -33 24 10 6 11 11 4
17 -5 4 -10 16 -11 27 0 11 -3 28 -8 38 -5 12 -3 17 9 17 9 0 16 -8 16 -20z
m1128 -112 c-3 -7 -15 -15 -28 -16 -21 -3 -22 -2 -11 12 16 19 44 21 39 4z
m952 -8 c0 -5 -7 -10 -15 -10 -8 0 -15 5 -15 10 0 6 7 10 15 10 8 0 15 -4 15
-10z m-1370 -10 c0 -5 -4 -10 -10 -10 -5 0 -10 5 -10 10 0 6 5 10 10 10 6 0
10 -4 10 -10z m-1150 -10 c0 -5 -7 -10 -15 -10 -8 0 -15 5 -15 10 0 6 7 10 15
10 8 0 15 -4 15 -10z m1230 0 c0 -5 -5 -10 -11 -10 -5 0 -7 5 -4 10 3 6 8 10
11 10 2 0 4 -4 4 -10z m975 1 c7 -12 -12 -24 -25 -16 -11 7 -4 25 10 25 5 0
11 -4 15 -9z m521 -15 c10 -8 16 -17 13 -20 -10 -10 -61 13 -54 24 8 14 18 13
41 -4z m-2566 -6 c0 -5 -11 -10 -25 -10 -14 0 -25 5 -25 10 0 6 11 10 25 10
14 0 25 -4 25 -10z m-870 -45 c0 -8 -6 -15 -14 -15 -17 0 -28 14 -19 24 12 12
33 6 33 -9z m4038 -13 c2 -7 -7 -12 -22 -12 -27 0 -35 15 -13 23 17 7 30 3 35
-11z m47 -23 c10 -14 1 -21 -19 -13 -9 3 -13 10 -10 15 7 12 21 11 29 -2z
m-4489 -44 c-3 -9 -11 -13 -16 -10 -8 5 -7 11 1 21 14 18 24 11 15 -11z m4907
3 c8 -30 3 -33 -22 -11 -26 22 -27 33 -2 33 11 0 21 -9 24 -22z m276 -7 c16
-11 -2 -51 -24 -51 -11 0 -14 27 -6 58 2 5 16 1 30 -7z m-6419 -141 c0 -5 -5
-10 -11 -10 -5 0 -7 5 -4 10 3 6 8 10 11 10 2 0 4 -4 4 -10z m6961 -5 c-1 -15
-24 -12 -29 3 -3 9 2 13 12 10 10 -1 17 -7 17 -13z m-6903 -32 c6 -19 -43 -16
-59 3 -11 14 -9 15 21 12 18 -2 35 -9 38 -15z m7242 7 c0 -5 -7 -10 -15 -10
-8 0 -15 5 -15 10 0 6 7 10 15 10 8 0 15 -4 15 -10z m0 -30 c0 -5 -4 -10 -10
-10 -5 0 -10 5 -10 10 0 6 5 10 10 10 6 0 10 -4 10 -10z m-7530 -19 c0 -13
-26 -32 -33 -24 -8 7 11 33 24 33 5 0 9 -4 9 -9z m7860 -45 c0 -3 -4 -8 -10
-11 -5 -3 -10 -1 -10 4 0 6 5 11 10 11 6 0 10 -2 10 -4z m-8230 -16 c0 -5 -7
-10 -15 -10 -8 0 -15 5 -15 10 0 6 7 10 15 10 8 0 15 -4 15 -10z m-40 -20 c0
-5 -9 -10 -20 -10 -11 0 -20 5 -20 10 0 6 9 10 20 10 11 0 20 -4 20 -10z
m-120 -10 c0 -5 -4 -10 -10 -10 -5 0 -10 5 -10 10 0 6 5 10 10 10 6 0 10 -4
10 -10z m8220 -880 c0 -5 -7 -10 -15 -10 -8 0 -15 5 -15 10 0 6 7 10 15 10 8
0 15 -4 15 -10z m-3339 -105 c-1 -15 -24 -12 -29 3 -3 9 2 13 12 10 10 -1 17
-7 17 -13z m-1511 1 c0 -3 -4 -8 -10 -11 -5 -3 -10 -1 -10 4 0 6 5 11 10 11 6
0 10 -2 10 -4z m160 -6 c0 -5 -4 -10 -10 -10 -5 0 -10 5 -10 10 0 6 5 10 10
10 6 0 10 -4 10 -10z m420 0 c13 -9 13 -10 0 -10 -8 0 -22 5 -30 10 -13 9 -13
10 0 10 8 0 22 -5 30 -10z m1440 -11 c0 -5 -7 -9 -15 -9 -15 0 -20 12 -9 23 8
8 24 -1 24 -14z m-2250 -9 c0 -5 -7 -10 -15 -10 -8 0 -15 5 -15 10 0 6 7 10
15 10 8 0 15 -4 15 -10z m2012 -12 c-6 -6 -16 -7 -22 -3 -9 6 -9 9 1 16 17 10
34 0 21 -13z m1229 -58 c5 0 9 -5 9 -11 0 -6 -9 -8 -20 -4 -14 5 -20 2 -20 -9
0 -9 -7 -16 -15 -16 -8 0 -15 6 -15 13 0 19 22 38 38 32 8 -3 18 -5 23 -5z
m-4401 -50 c0 -5 -4 -10 -10 -10 -5 0 -10 5 -10 10 0 6 5 10 10 10 6 0 10 -4
10 -10z m-597 -74 c6 -15 -1 -26 -15 -26 -4 0 -8 9 -8 20 0 23 15 27 23 6z
m6087 -36 c8 -5 11 -12 8 -16 -4 -3 -14 1 -23 10 -18 17 -9 21 15 6z"/>
<path d="M5934 6730 c-62 -35 -80 -72 -64 -131 19 -69 96 -97 168 -60 48 24
72 64 72 117 0 28 -8 44 -34 70 -43 43 -74 44 -142 4z"/>
<path d="M6376 6745 c-8 -8 -19 -15 -25 -15 -14 0 -41 -54 -41 -82 0 -35 47
-98 86 -114 43 -18 58 -18 101 3 83 39 81 140 -5 194 -51 32 -92 37 -116 14z
m25 -68 c-1 -12 -15 -9 -19 4 -3 6 1 10 8 8 6 -3 11 -8 11 -12z"/>
<path d="M6160 6484 c-57 -19 -90 -39 -86 -51 4 -9 0 -13 -11 -11 -10 2 -28
-13 -45 -37 -36 -51 -49 -159 -26 -215 23 -55 68 -101 123 -126 94 -44 183
-27 261 51 42 42 54 61 63 105 18 85 0 150 -62 215 -55 58 -154 89 -217 69z
m-90 -114 c0 -5 -9 -10 -20 -10 -11 0 -20 5 -20 10 0 6 9 10 20 10 11 0 20 -4
20 -10z m220 -50 c0 -5 -4 -10 -9 -10 -6 0 -13 5 -16 10 -3 6 1 10 9 10 9 0
16 -4 16 -10z m60 -50 c0 -5 -9 -10 -20 -10 -11 0 -20 5 -20 10 0 6 9 10 20
10 11 0 20 -4 20 -10z m-131 -139 c-3 -6 -10 -7 -18 -2 -7 5 -10 14 -6 21 9
14 29 -2 24 -19z m-44 -41 c3 -6 -4 -10 -17 -10 -18 0 -20 2 -8 10 19 12 18
12 25 0z"/>
<path d="M5721 6371 c-11 -7 -11 -10 0 -15 8 -3 4 -3 -8 0 -29 7 -53 -38 -53
-101 0 -101 65 -149 154 -115 83 31 86 181 4 226 -27 15 -77 18 -97 5z m99
-21 c0 -5 -9 -10 -20 -10 -11 0 -20 5 -20 10 0 6 9 10 20 10 11 0 20 -4 20
-10z"/>
<path d="M6587 6347 c-48 -44 -56 -92 -28 -150 35 -73 114 -90 170 -38 29 27
31 34 31 96 0 60 -3 69 -29 96 -43 42 -97 41 -144 -4z m38 -147 c-3 -5 -10
-10 -16 -10 -5 0 -9 5 -9 10 0 6 7 10 16 10 8 0 12 -4 9 -10z"/>
<path d="M5945 5983 c-29 -7 -72 -51 -80 -80 -12 -48 12 -91 68 -123 69 -40
100 -39 143 4 27 27 34 42 34 73 0 87 -78 147 -165 126z"/>
<path d="M6395 5981 c-34 -14 -74 -62 -81 -96 -11 -63 24 -120 82 -131 67 -12
164 61 164 124 0 76 -91 133 -165 103z m140 -111 c-3 -5 -10 -10 -16 -10 -5 0
-9 5 -9 10 0 6 7 10 16 10 8 0 12 -4 9 -10z"/>
<path d="M6924 6023 c3 -6 2 -13 -2 -15 -5 -1 -22 -33 -39 -69 l-31 -66 148
-148 c81 -81 150 -143 152 -138 3 4 3 1 1 -7 -2 -8 6 -22 18 -31 22 -16 25
-15 91 29 l69 46 -58 58 c-31 32 -66 58 -76 58 -12 0 -17 5 -14 14 3 8 -49 67
-130 147 -75 74 -133 129 -129 122z m-6 -141 c6 -18 -15 -14 -22 4 -4 10 -1
14 6 12 6 -2 14 -10 16 -16z m116 -103 c-3 -5 -10 -7 -15 -3 -5 3 -7 10 -3 15
3 5 10 7 15 3 5 -3 7 -10 3 -15z m169 -70 c6 -24 -30 -43 -50 -27 -18 15 -16
23 10 36 31 15 34 15 40 -9z"/>
<path d="M7529 5340 c-1 -47 0 -89 1 -95 2 -5 3 -20 4 -31 1 -12 9 -30 18 -41
61 -67 65 -163 9 -233 l-32 -40 3 -112 3 -113 88 88 c49 49 87 93 85 99 -2 6
6 21 18 33 26 26 52 131 36 147 -7 7 -7 17 1 31 9 15 9 21 1 24 -7 2 -10 12
-7 22 10 38 -45 125 -137 216 l-90 90 -1 -85z m46 -70 c3 -5 -1 -10 -10 -10
-9 0 -13 5 -10 10 3 6 8 10 10 10 2 0 7 -4 10 -10z m150 -130 c3 -5 -3 -10
-14 -10 -12 0 -21 5 -21 10 0 6 6 10 14 10 8 0 18 -4 21 -10z m-70 -185 c0 -5
-10 -11 -22 -13 -16 -2 -23 2 -23 13 0 11 7 15 23 13 12 -2 22 -7 22 -13z"/>
<path d="M3096 4398 c-15 -43 -15 -48 -1 -48 20 0 26 15 16 42 -8 20 -10 21
-15 6z"/>
<path d="M7951 4310 c-18 -58 -30 -109 -26 -120 8 -24 10 -23 -162 -20 -68 1
-123 -2 -123 -6 0 -5 48 -42 105 -83 58 -41 105 -77 105 -81 0 -4 -18 -61 -40
-126 -22 -65 -38 -119 -37 -120 2 -2 50 31 107 72 57 41 109 73 117 70 7 -3
53 -35 103 -72 50 -36 93 -64 96 -61 3 3 -11 58 -33 122 l-38 117 26 21 c15
12 30 32 33 44 7 21 42 41 53 29 3 -3 26 9 50 25 24 17 42 33 39 36 -3 3 -38
7 -78 8 -40 1 -96 2 -125 3 l-52 2 -38 120 c-21 66 -40 120 -43 120 -3 0 -21
-45 -39 -100z m209 -250 c0 -5 -5 -10 -11 -10 -5 0 -7 5 -4 10 3 6 8 10 11 10
2 0 4 -4 4 -10z m-72 -52 c-3 -7 -11 -13 -18 -13 -7 0 -15 6 -17 13 -3 7 4 12
17 12 13 0 20 -5 18 -12z m-188 -98 c0 -5 -7 -10 -15 -10 -8 0 -15 5 -15 10 0
6 7 10 15 10 8 0 15 -4 15 -10z"/>
<path d="M3047 4253 l-23 -78 -127 -5 c-69 -3 -128 -8 -131 -11 -7 -7 160
-130 185 -136 14 -4 15 -10 7 -39 -5 -19 -6 -39 -3 -45 4 -6 0 -16 -8 -22 -13
-10 -57 -132 -57 -158 0 -4 44 24 98 62 53 39 102 73 109 76 6 2 57 -30 114
-71 56 -42 104 -74 106 -72 2 1 -15 55 -37 119 -22 64 -40 120 -40 125 0 4 47
41 105 82 57 41 105 79 105 83 0 4 -58 7 -129 5 -71 -1 -132 -1 -134 2 -2 3
-15 39 -29 80 -23 70 -26 75 -56 78 -31 3 -31 2 -55 -75z m313 -113 c0 -5 -4
-10 -10 -10 -5 0 -10 5 -10 10 0 6 5 10 10 10 6 0 10 -4 10 -10z m-280 -10 c0
-5 -4 -10 -10 -10 -5 0 -10 5 -10 10 0 6 5 10 10 10 6 0 10 -4 10 -10z m225
-30 c-3 -5 -10 -10 -16 -10 -5 0 -9 5 -9 10 0 6 7 10 16 10 8 0 12 -4 9 -10z"/>
<path d="M4990 3424 c-497 -15 -1250 -73 -1700 -130 -107 -13 -249 -31 -315
-39 -66 -9 -145 -20 -175 -25 -30 -5 -134 -22 -230 -36 -338 -50 -1141 -208
-1189 -234 -10 -5 4 -17 49 -39 203 -101 343 -286 381 -505 14 -86 7 -231 -17
-306 -9 -30 -17 -63 -16 -72 0 -10 -3 -18 -8 -18 -6 0 -21 -22 -34 -48 -13
-27 -43 -71 -65 -100 -42 -52 -48 -67 -33 -76 5 -3 105 15 223 40 237 50 736
143 899 169 58 9 125 20 150 25 25 5 86 14 135 20 50 7 137 18 195 25 421 56
880 97 1460 132 278 17 1513 27 1535 12 6 -3 114 -11 240 -18 448 -23 947 -68
1305 -116 102 -14 203 -27 225 -29 95 -9 569 -89 889 -151 126 -24 233 -42
238 -39 5 3 14 1 21 -4 10 -8 274 -72 298 -72 20 0 7 34 -33 88 -24 31 -46 59
-50 60 -5 2 -8 9 -8 16 0 20 -49 37 -89 31 l-36 -6 34 16 c18 8 40 15 47 15
18 0 18 2 -5 58 -25 60 -41 159 -41 251 0 46 -4 70 -10 66 -5 -3 -10 -2 -10 4
0 5 8 14 18 20 12 7 17 22 17 55 0 25 3 46 6 46 3 0 26 42 52 93 26 51 71 119
103 154 32 36 52 68 48 74 -4 7 -1 10 7 7 8 -3 34 9 59 26 25 17 73 45 108 62
61 31 62 32 35 38 -53 12 -68 15 -130 30 -34 9 -77 17 -95 18 -18 1 -37 5 -43
9 -9 6 -385 82 -640 128 -97 18 -345 56 -685 106 -183 26 -281 35 -342 28 -46
-5 -61 -3 -71 9 -11 15 -179 38 -377 53 -30 3 -102 9 -160 14 -109 11 -387 31
-500 36 -36 2 -130 9 -210 14 -139 11 -1243 22 -1460 15z m-256 -53 c3 -5 -1
-12 -10 -15 -22 -9 -24 -8 -24 9 0 16 25 21 34 6z m206 -21 c0 -5 -4 -10 -10
-10 -5 0 -10 5 -10 10 0 6 5 10 10 10 6 0 10 -4 10 -10z m1360 -30 c0 -5 -2
-10 -4 -10 -3 0 -8 5 -11 10 -3 6 -1 10 4 10 6 0 11 -4 11 -10z m-1810 -4 c0
-3 -4 -8 -10 -11 -5 -3 -10 -1 -10 4 0 6 5 11 10 11 6 0 10 -2 10 -4z m2360
-16 c0 -5 -10 -10 -22 -10 -19 0 -20 2 -8 10 19 13 30 13 30 0z m-2315 -60 c3
-5 -1 -10 -9 -10 -9 0 -16 5 -16 10 0 6 4 10 9 10 6 0 13 -4 16 -10z m225 0
c0 -5 -5 -10 -11 -10 -5 0 -7 5 -4 10 3 6 8 10 11 10 2 0 4 -4 4 -10z m1955
-10 c-3 -5 -10 -10 -16 -10 -5 0 -9 5 -9 10 0 6 7 10 16 10 8 0 12 -4 9 -10z
m-3185 -10 c0 -5 -4 -10 -10 -10 -5 0 -10 5 -10 10 0 6 5 10 10 10 6 0 10 -4
10 -10z m1434 -9 c3 -4 3 -11 0 -14 -8 -7 -44 4 -44 14 0 12 37 12 44 0z
m1246 -1 c0 -5 -7 -10 -16 -10 -8 0 -12 5 -9 10 3 6 10 10 16 10 5 0 9 -4 9
-10z m-1390 -10 c0 -5 -9 -10 -20 -10 -11 0 -20 5 -20 10 0 6 9 10 20 10 11 0
20 -4 20 -10z m3050 6 c0 -11 -19 -15 -25 -6 -3 5 1 10 9 10 9 0 16 -2 16 -4z
m-3920 -16 c0 -5 -7 -10 -15 -10 -8 0 -15 5 -15 10 0 6 7 10 15 10 8 0 15 -4
15 -10z m1223 -67 c4 -3 0 -15 -10 -25 -23 -26 -20 -217 4 -235 15 -12 15 -14
-2 -33 -15 -17 -17 -33 -13 -120 4 -82 8 -103 23 -114 33 -24 7 -36 -79 -36
-45 0 -86 3 -89 7 -4 3 1 15 10 26 24 26 21 215 -4 234 -15 12 -15 14 2 33 15
17 17 33 13 121 -4 80 -9 103 -22 111 -40 22 -10 31 115 36 25 1 49 -1 52 -5z
m491 -2 c4 -5 9 -37 12 -70 6 -57 6 -61 -14 -61 -15 0 -28 12 -42 40 -24 47
-55 62 -119 58 l-46 -3 0 -105 c0 -90 2 -105 17 -108 15 -3 30 9 66 53 25 30
42 0 42 -75 0 -75 -17 -105 -42 -75 -36 44 -51 56 -66 53 -15 -3 -17 -18 -17
-108 l0 -105 51 -3 c68 -4 98 10 129 58 45 71 76 46 56 -46 l-12 -54 -190 0
c-104 0 -189 4 -189 9 0 5 7 14 15 21 19 16 22 219 3 238 -9 9 -9 15 0 24 19
19 16 222 -3 238 -8 7 -15 16 -15 21 0 12 357 12 364 0z m-800 -8 c3 -4 -5
-16 -18 -27 -31 -26 -82 -212 -64 -233 8 -10 6 -19 -8 -34 -11 -12 -32 -74
-49 -142 -31 -120 -31 -121 -63 -128 -39 -8 -36 -12 -87 131 -21 58 -47 112
-58 121 -13 11 -17 22 -13 36 4 12 -8 58 -29 114 -32 86 -49 112 -78 122 -6 2
-7 9 -3 15 5 8 38 12 97 12 86 0 100 -5 79 -26 -6 -6 9 -61 45 -158 30 -82 56
-150 58 -153 10 -9 78 292 72 318 -5 21 -2 28 12 32 29 8 99 8 107 0z m1396
-7 c0 -8 -6 -16 -14 -19 -10 -4 -16 -35 -21 -106 -6 -83 -4 -105 8 -125 13
-20 14 -25 1 -37 -9 -9 -16 -50 -20 -117 l-7 -102 76 0 76 0 31 45 c30 44 52
56 65 35 10 -16 -17 -121 -32 -127 -8 -3 -92 -2 -188 2 -136 6 -175 10 -175
21 0 7 6 17 14 21 9 5 15 40 19 107 6 84 4 103 -10 118 -15 16 -15 20 -1 36
11 11 18 49 23 119 6 89 5 104 -9 109 -9 3 -16 12 -16 20 0 11 20 14 90 14 70
0 90 -3 90 -14z m2186 -22 c-23 -16 -60 -19 -51 -4 3 6 15 10 25 10 10 0 22 5
25 11 4 6 10 7 13 4 4 -4 -2 -13 -12 -21z m-1733 9 c67 -6 81 -16 51 -37 -21
-16 -33 -208 -14 -231 10 -13 10 -18 -3 -33 -10 -11 -17 -49 -22 -117 -6 -86
-5 -103 9 -114 33 -28 17 -34 -70 -28 -91 5 -120 18 -86 36 16 9 20 25 26 110
6 73 4 104 -5 119 -11 17 -10 24 3 39 22 26 32 207 12 227 -8 8 -14 19 -14 25
0 13 19 13 113 4z m-2535 -27 c15 -8 39 -27 54 -43 28 -29 78 -132 78 -160 0
-9 7 -24 16 -34 11 -12 13 -22 6 -36 -6 -10 -15 -49 -20 -87 -24 -154 -138
-241 -259 -195 -62 23 -119 99 -143 189 -6 25 -19 50 -27 57 -13 10 -14 15 -4
27 7 9 16 45 21 80 11 86 43 151 93 187 33 24 50 29 99 29 32 0 71 -6 86 -14z
m2936 4 c22 -5 53 -19 69 -31 28 -20 31 -21 42 -5 22 30 35 18 34 -31 -3 -110
-31 -143 -56 -67 -18 53 -52 85 -93 86 -35 1 -60 -21 -60 -52 0 -34 140 -190
170 -190 5 0 10 -8 10 -19 0 -10 7 -35 15 -54 20 -49 19 -90 -5 -136 -41 -82
-166 -104 -274 -51 -36 18 -50 22 -53 13 -3 -7 -11 -13 -19 -13 -16 0 -19 53
-8 134 9 61 31 58 53 -6 19 -58 55 -95 98 -104 27 -5 37 -1 64 25 26 27 30 37
25 64 -8 43 -54 106 -96 135 -19 13 -37 29 -39 35 -2 7 -19 34 -38 61 -58 85
-38 171 48 202 42 15 63 16 113 4z m-3394 -42 c0 -6 -6 -19 -14 -27 -19 -22 2
-201 26 -228 13 -15 14 -21 4 -35 -18 -25 4 -206 27 -223 28 -20 19 -32 -28
-39 -25 -3 -65 -9 -90 -12 -35 -5 -45 -3 -45 8 0 8 5 19 11 25 12 12 2 183
-11 183 -3 0 -12 -48 -18 -107 -7 -59 -15 -110 -20 -114 -4 -4 -31 -9 -61 -11
l-54 -3 -38 103 c-40 111 -55 138 -46 82 3 -19 9 -61 13 -93 5 -44 11 -60 27
-69 20 -10 20 -11 2 -24 -18 -13 -115 -20 -115 -9 0 3 5 14 12 24 17 27 -4
206 -27 231 -13 15 -14 22 -4 37 9 15 9 42 1 114 -9 77 -15 97 -34 112 -18 15
-19 20 -7 28 7 5 28 9 44 9 17 0 46 3 66 6 l36 6 63 -178 c34 -99 66 -183 70
-187 11 -12 16 20 36 208 9 88 20 164 25 170 8 8 72 20 127 24 12 0 22 -4 22
-11z m3945 -21 l180 -22 6 -55 c6 -57 -4 -94 -24 -88 -7 2 -22 25 -34 50 -18
36 -31 49 -58 58 -20 7 -38 10 -40 8 -3 -2 -10 -48 -16 -102 -10 -79 -10 -102
0 -119 11 -17 11 -22 -3 -33 -13 -9 -20 -39 -28 -113 -10 -91 -10 -103 6 -120
25 -27 8 -32 -75 -21 -41 5 -80 10 -86 10 -19 0 -16 19 6 38 25 22 47 193 29
222 -10 15 -9 23 4 37 22 26 44 203 26 215 -24 15 -62 -2 -100 -44 -24 -27
-41 -39 -52 -35 -20 8 -20 20 -1 85 19 62 0 60 260 29z m-5725 9 c0 -2 -7 -6
-15 -10 -8 -3 -15 -1 -15 4 0 6 7 10 15 10 8 0 15 -2 15 -4z m2750 -6 c0 -5
-7 -10 -15 -10 -8 0 -15 5 -15 10 0 6 7 10 15 10 8 0 15 -4 15 -10z m-2010 -5
c0 -3 -12 -10 -26 -15 -29 -11 -54 -3 -33 11 15 9 59 12 59 4z m1688 -64 c3
-8 -1 -12 -9 -9 -7 2 -15 10 -17 17 -3 8 1 12 9 9 7 -2 15 -10 17 -17z m3967
-1 c3 -5 1 -10 -4 -10 -6 0 -11 5 -11 10 0 6 2 10 4 10 3 0 8 -4 11 -10z
m-6205 -10 c11 -7 7 -10 -17 -10 -17 0 -35 5 -38 10 -8 13 35 13 55 0z m2230
-30 c0 -5 -5 -10 -11 -10 -5 0 -7 5 -4 10 3 6 8 10 11 10 2 0 4 -4 4 -10z
m4155 -10 c3 -5 -1 -10 -10 -10 -9 0 -13 5 -10 10 3 6 8 10 10 10 2 0 7 -4 10
-10z m-2550 -10 c-3 -5 -10 -10 -16 -10 -5 0 -9 5 -9 10 0 6 7 10 16 10 8 0
12 -4 9 -10z m2480 -30 c-3 -5 -13 -10 -21 -10 -8 0 -14 5 -14 10 0 6 9 10 21
10 11 0 17 -4 14 -10z m-105 -10 c0 -5 -4 -10 -10 -10 -5 0 -10 5 -10 10 0 6
5 10 10 10 6 0 10 -4 10 -10z m1090 -19 c0 -5 -8 -11 -17 -15 -10 -3 -24 -9
-30 -12 -7 -3 -13 -1 -13 5 0 7 10 16 23 21 29 12 37 12 37 1z m-7420 -71 c0
-5 -4 -10 -10 -10 -5 0 -10 5 -10 10 0 6 5 10 10 10 6 0 10 -4 10 -10z m6690
-10 c0 -5 -9 -10 -21 -10 -11 0 -17 5 -14 10 3 6 13 10 21 10 8 0 14 -4 14
-10z m-105 -20 c3 -5 2 -10 -4 -10 -5 0 -13 5 -16 10 -3 6 -2 10 4 10 5 0 13
-4 16 -10z m-5675 -60 c0 -5 -7 -10 -15 -10 -8 0 -15 5 -15 10 0 6 7 10 15 10
8 0 15 -4 15 -10z m6025 -20 c3 -5 1 -10 -4 -10 -6 0 -11 5 -11 10 0 6 2 10 4
10 3 0 8 -4 11 -10z m-4540 -20 c3 -5 -3 -10 -14 -10 -11 0 -23 5 -26 10 -3 6
3 10 14 10 11 0 23 -4 26 -10z m3022 4 c-3 -3 -12 -4 -19 -1 -8 3 -5 6 6 6 11
1 17 -2 13 -5z m1083 -4 c0 -5 -4 -10 -9 -10 -6 0 -13 5 -16 10 -3 6 1 10 9
10 9 0 16 -4 16 -10z m110 -30 c0 -5 -4 -10 -10 -10 -5 0 -10 5 -10 10 0 6 5
10 10 10 6 0 10 -4 10 -10z m-385 -10 c-3 -5 -10 -10 -16 -10 -5 0 -9 5 -9 10
0 6 7 10 16 10 8 0 12 -4 9 -10z m-5325 -41 c0 -5 -7 -9 -15 -9 -15 0 -20 12
-9 23 8 8 24 -1 24 -14z m-382 -18 c3 -8 -1 -12 -9 -9 -7 2 -15 10 -17 17 -3
8 1 12 9 9 7 -2 15 -10 17 -17z m539 13 c-3 -3 -12 -4 -19 -1 -8 3 -5 6 6 6
11 1 17 -2 13 -5z m1343 -4 c0 -5 -2 -10 -4 -10 -3 0 -8 5 -11 10 -3 6 -1 10
4 10 6 0 11 -4 11 -10z m470 -10 c0 -5 9 -10 19 -10 11 0 23 -4 26 -10 3 -6
-4 -10 -17 -10 -13 0 -29 9 -36 20 -7 12 -8 20 -2 20 5 0 10 -4 10 -10z
m-2290 -41 c13 -24 8 -34 -15 -26 -16 7 -21 47 -5 47 5 0 14 -9 20 -21z m3383
4 c-7 -2 -21 -2 -30 0 -10 3 -4 5 12 5 17 0 24 -2 18 -5z m-2023 -13 c0 -5 -2
-10 -4 -10 -3 0 -8 5 -11 10 -3 6 -1 10 4 10 6 0 11 -4 11 -10z m1855 -70 c3
-5 2 -10 -4 -10 -5 0 -13 5 -16 10 -3 6 -2 10 4 10 5 0 13 -4 16 -10z m465 0
c0 -5 -4 -10 -10 -10 -5 0 -10 5 -10 10 0 6 5 10 10 10 6 0 10 -4 10 -10z
m-1460 -30 c20 -7 16 -8 -22 -9 -26 -1 -50 4 -53 9 -7 12 38 12 75 0z m870 0
c0 -5 -7 -10 -16 -10 -8 0 -12 5 -9 10 3 6 10 10 16 10 5 0 9 -4 9 -10z m2910
-10 c-20 -13 -43 -13 -35 0 3 6 16 10 28 10 18 0 19 -2 7 -10z m-1470 -20 c0
-5 -7 -10 -16 -10 -8 0 -12 5 -9 10 3 6 10 10 16 10 5 0 9 -4 9 -10z m1420 6
c0 -3 -4 -8 -10 -11 -5 -3 -10 -1 -10 4 0 6 5 11 10 11 6 0 10 -2 10 -4z m713
-3 c-7 -2 -19 -2 -25 0 -7 3 -2 5 12 5 14 0 19 -2 13 -5z m-3225 -15 c-2 -6
-10 -14 -16 -16 -7 -2 -10 2 -6 12 7 18 28 22 22 4z m2917 2 c3 -5 -1 -10 -10
-10 -9 0 -13 5 -10 10 3 6 8 10 10 10 2 0 7 -4 10 -10z m-2845 -10 c0 -5 -7
-10 -16 -10 -8 0 -12 5 -9 10 3 6 10 10 16 10 5 0 9 -4 9 -10z m-2280 -10 c0
-5 -16 -10 -36 -10 -21 0 -33 4 -29 10 3 6 19 10 36 10 16 0 29 -4 29 -10z
m4670 1 c0 -5 -7 -11 -15 -15 -9 -3 -15 0 -15 9 0 8 7 15 15 15 8 0 15 -4 15
-9z m-1146 -17 c9 -3 16 -10 16 -15 0 -14 -26 -10 -40 6 -13 16 -3 20 24 9z
m-2784 -28 c0 -3 -4 -8 -10 -11 -5 -3 -10 -1 -10 4 0 6 5 11 10 11 6 0 10 -2
10 -4z m1884 -12 c25 -10 19 -26 -6 -19 -31 10 -47 25 -26 25 9 0 23 -3 32 -6z
m1336 -4 c0 -5 -7 -10 -16 -10 -8 0 -12 5 -9 10 3 6 10 10 16 10 5 0 9 -4 9
-10z m-3555 -20 c3 -5 1 -10 -4 -10 -6 0 -11 5 -11 10 0 6 2 10 4 10 3 0 8 -4
11 -10z m510 0 c-3 -5 -12 -7 -20 -3 -21 7 -19 13 6 13 11 0 18 -4 14 -10z
m3015 -14 c0 -15 -24 -28 -34 -19 -7 7 13 33 25 33 5 0 9 -6 9 -14z m80 -6 c0
-5 -4 -10 -10 -10 -5 0 -10 5 -10 10 0 6 5 10 10 10 6 0 10 -4 10 -10z m1122
-2 c-9 -9 -15 -9 -24 0 -9 9 -7 12 12 12 19 0 21 -3 12 -12z m-6425 -54 c-3
-3 -12 -4 -19 -1 -8 3 -5 6 6 6 11 1 17 -2 13 -5z m-472 -24 c-3 -5 -11 -10
-16 -10 -6 0 -7 5 -4 10 3 6 11 10 16 10 6 0 7 -4 4 -10z m1125 0 c0 -5 -4
-10 -9 -10 -6 0 -13 5 -16 10 -3 6 1 10 9 10 9 0 16 -4 16 -10z m6078 -19 c11
-6 10 -11 -3 -25 -22 -21 -25 -20 -25 9 0 26 6 30 28 16z m-7383 -141 c0 -22
-29 -18 -33 3 -3 14 1 18 15 15 10 -2 18 -10 18 -18z m65 5 c0 -10 10 -15 30
-15 17 0 30 -4 30 -9 0 -10 -46 -18 -71 -13 -17 3 -32 36 -21 46 11 12 32 6
32 -9z m7310 -25 c0 -5 -4 -10 -10 -10 -5 0 -10 5 -10 10 0 6 5 10 10 10 6 0
10 -4 10 -10z m-78 -32 c-9 -9 -15 -9 -24 0 -9 9 -7 12 12 12 19 0 21 -3 12
-12z m48 2 c0 -5 -4 -10 -10 -10 -5 0 -10 5 -10 10 0 6 5 10 10 10 6 0 10 -4
10 -10z"/>
<path d="M4053 3003 c-13 -19 -18 -53 -21 -123 -10 -234 67 -402 132 -290 30
50 28 245 -2 338 -33 101 -74 129 -109 75z"/>
</g>
</svg>
